<svg xmlns="http://www.w3.org/2000/svg" viewBox="0 0 100 100">
  <path d="M75,40H25c-2.8,0-5,2.2-5,5v15c0,13.8,11.2,25,25,25h10c13.8,0,25-11.2,25-25V45C80,42.2,77.8,40,75,40z" fill="#FFF9C4"/>
  <path d="M75,40H25c-2.8,0-5,2.2-5,5v5h60v-5C80,42.2,77.8,40,75,40z" fill="#FFEB3B"/>
  <path d="M85,40H75v5h15v-0.8C90,41.9,87.8,40,85,40z" fill="#FFC107"/>
  <path d="M90,44.2v5.8c0,2.8-2.2,5-5,5H75v-5h15V44.2z" fill="#FFA000"/>
  <ellipse cx="50" cy="60" rx="20" ry="5" fill="#795548" opacity="0.3"/>
</svg>
