<?xml version="1.0" standalone="no"?>
<!DOCTYPE svg PUBLIC "-//W3C//DTD SVG 20010904//EN"
 "http://www.w3.org/TR/2001/REC-SVG-20010904/DTD/svg10.dtd">
<svg version="1.0" xmlns="http://www.w3.org/2000/svg"
 width="118.000000pt" height="175.000000pt" viewBox="0 0 118.000000 175.000000"
 preserveAspectRatio="xMidYMid meet">

<g transform="translate(0.000000,175.000000) scale(0.100000,-0.100000)"
fill="#000000" stroke="none">
<path d="M582 872 l-52 -3 1 -52 c1 -37 -6 -71 -25 -116 -32 -75 -29 -103 14
-121 33 -14 74 -10 157 15 88 26 89 67 5 148 -36 36 -39 42 -35 81 3 24 1 45
-3 47 -5 2 -33 3 -62 1z m121 -176 c10 -25 -13 -36 -39 -19 -13 8 -21 19 -18
24 8 14 51 10 57 -5z m-113 -11 c30 -36 -14 -71 -54 -42 -15 11 -17 17 -7 35
13 25 43 29 61 7z"/>
<path d="M621 304 c-10 -11 -23 -14 -47 -9 -31 5 -35 3 -51 -30 -15 -32 -15
-37 -2 -51 19 -19 42 -10 59 22 13 22 19 25 69 22 52 -3 56 -1 59 21 2 13 -2
28 -10 32 -21 14 -62 10 -77 -7z"/>
</g>
</svg>
